<svg version="1.0" xmlns="http://www.w3.org/2000/svg"
 width="64.000000pt" height="64.000000pt" viewBox="0 0 64.000000 64.000000"
 preserveAspectRatio="xMidYMid meet">
<path class="walls" d="M 1.567 1.926 C 0.609 2.985, -0.023 4.566, 0.162 5.441 C 0.410 6.607, 1.242 6.095, 3.293 3.515 C 6.282 -0.247, 4.783 -1.628, 1.567 1.926 M 18.485 2.050 C 13.306 4.715, 6.587 11.955, 3.835 17.838 C 0.576 24.804, 0.665 38.599, 4.013 45.479 C 8.051 53.777, 19.584 64, 24.908 64 C 27.994 64, 28 63.989, 28 58.427 L 28 52.855 25.365 54.927 C 17.096 61.432, 5.539 50.814, 11.549 42.234 C 13.041 40.103, 12.956 39.966, 9.185 38.457 C 2.671 35.851, 0.968 28.568, 5.589 23.077 C 7.543 20.755, 9.010 20, 11.570 20 L 14.962 20 14.355 15.571 C 13.511 9.419, 14.532 6.293, 17.965 4.518 C 22.695 2.072, 25.888 2.602, 29.500 6.431 L 32.736 9.862 33.978 7.542 C 37.275 1.381, 47.408 1.744, 50.048 8.116 C 51.110 10.680, 51.064 13.745, 49.899 17.938 C 49.626 18.921, 50.617 19.572, 53.034 19.996 C 57.660 20.806, 58.701 21.521, 60.596 25.185 C 63.486 30.774, 61.041 36.513, 54.752 38.904 C 52.013 39.946, 52.011 39.954, 53.639 43.368 C 57.940 52.388, 47.502 61.115, 39.727 55 C 38.329 53.900, 36.918 53, 36.592 53 C 36.267 53, 36 55.475, 36 58.500 L 36 64 39.567 64 C 45.222 64, 55.979 54.743, 60.138 46.298 C 62.168 42.174, 62.500 40.018, 62.500 30.959 C 62.500 20.685, 62.411 20.271, 59 14.610 C 52.400 3.659, 45.580 -0, 31.767 -0 C 24.357 -0, 21.662 0.416, 18.485 2.050 M 59 0.826 C 59 1.280, 60.125 2.708, 61.500 4 C 63.863 6.220, 64 6.240, 64 4.374 C 64 3.288, 63.460 1.860, 62.800 1.200 C 61.430 -0.170, 59 -0.409, 59 0.826 M -0 57.636 C -0 60.036, 4.258 64.324, 6.161 63.841 C 7.035 63.618, 6.197 62.132, 3.750 59.561 C 0.627 56.280, -0 55.958, -0 57.636 M 60.054 60.436 C 57.028 63.565, 56.857 64, 58.649 64 C 61.182 64, 64.291 60.710, 63.838 58.510 C 63.575 57.236, 62.734 57.664, 60.054 60.436" stroke="none" fill="#1e1407" fill-rule="evenodd"/>
<path class="floors" d="M 0 1.622 C 0 2.951, 0.271 3.020, 1.500 2 C 3.389 0.432, 3.389 0, 1.500 0 C 0.675 0, 0 0.730, 0 1.622 M 3.073 3.728 L -0 7.456 -0 31.561 L -0 55.667 3.846 59.834 C 7.655 63.959, 7.761 64, 14.596 63.964 L 21.500 63.928 18.609 61.714 C 12.330 56.904, 6.319 50.219, 4.013 45.479 C 0.665 38.599, 0.576 24.804, 3.835 17.838 C 6.587 11.955, 13.306 4.715, 18.485 2.050 L 22.470 0 14.308 0 L 6.146 -0 3.073 3.728 M 44.846 1.531 C 50.393 3.940, 55.305 8.479, 59 14.610 C 62.411 20.271, 62.500 20.685, 62.500 30.959 C 62.500 45.507, 59.996 50.447, 47.424 60.700 L 43.500 63.899 50.047 63.950 C 56.335 63.998, 56.741 63.850, 60.297 60.208 L 64 56.416 63.971 31.458 L 63.941 6.500 60.985 3.250 C 58.097 0.076, 57.835 0.001, 49.764 0.039 C 41.655 0.078, 41.563 0.105, 44.846 1.531 M 62.500 1 C 62.840 1.550, 63.316 2, 63.559 2 C 63.802 2, 64 1.550, 64 1 C 64 0.450, 63.523 0, 62.941 0 C 62.359 0, 62.160 0.450, 62.500 1 M 17.763 4.565 C 14.517 6.326, 13.526 9.527, 14.355 15.571 L 14.962 20 11.570 20 C 9.010 20, 7.543 20.755, 5.589 23.077 C 0.968 28.568, 2.671 35.851, 9.185 38.457 C 12.956 39.966, 13.041 40.103, 11.549 42.234 C 5.539 50.814, 17.096 61.432, 25.365 54.927 L 28 52.855 28 58.427 L 28 64 32 64 L 36 64 36 58.500 C 36 55.475, 36.267 53, 36.592 53 C 36.918 53, 38.329 53.900, 39.727 55 C 47.502 61.115, 57.940 52.388, 53.639 43.368 C 52.011 39.954, 52.013 39.946, 54.752 38.904 C 61.041 36.513, 63.486 30.774, 60.596 25.185 C 58.701 21.521, 57.660 20.806, 53.034 19.996 C 50.617 19.572, 49.626 18.921, 49.899 17.938 C 51.064 13.745, 51.110 10.680, 50.048 8.116 C 47.408 1.744, 37.275 1.381, 33.978 7.542 L 32.736 9.862 29.500 6.431 C 25.898 2.612, 22.390 2.055, 17.763 4.565 M 0 62 C 0 63.381, 0.667 64, 2.155 64 C 4.247 64, 4.257 63.941, 2.500 62 C 1.505 60.900, 0.535 60, 0.345 60 C 0.155 60, 0 60.900, 0 62 M 62 62.500 C 60.980 63.729, 61.049 64, 62.378 64 C 63.270 64, 64 63.325, 64 62.500 C 64 61.675, 63.830 61, 63.622 61 C 63.415 61, 62.685 61.675, 62 62.500" stroke="none" fill="#eeb824" fill-rule="evenodd"/>
    <style>
        @media (prefers-color-scheme: light) {
          .walls { fill: #eeb824; }
          .floors { fill: #6A0AC8;}
        }
    </style>
</svg>
